<?xml version="1.0" encoding="utf-8"?>
<!-- Generator: Adobe Illustrator 24.0.3, SVG Export Plug-In . SVG Version: 6.00 Build 0)  -->
<svg version="1.1" id="Layer_1" xmlns="http://www.w3.org/2000/svg" xmlns:xlink="http://www.w3.org/1999/xlink" x="0px" y="0px"
	 viewBox="0 0 112.22 80.74" style="enable-background:new 0 0 112.22 80.74;" xml:space="preserve">
<style type="text/css">
	.st0{fill:#FFFFFF;}
</style>
<g>
	<path class="st0" d="M0.11,78.24c-0.02,1.96,0.94,2.51,2.56,2.5l83.95-0.14c3.9-0.05,7.75-0.68,11.47-1.91
		c3.89-1.28,7.35-3.24,9.97-6.47c2.84-3.5,4.01-7.6,4.14-12.02c0.07-2.44-0.09-4.88-0.1-7.31c-0.02-6.63-0.01-13.26-0.01-19.9
		c0-1.53-0.66-2.18-2.19-2.18l-14.63,0c-1.65,0-2.28,0.63-2.28,2.29c0,7.42,0,14.85-0.01,22.27c0,0.85-0.05,1.71-0.15,2.56
		c-0.41,3.19-2.18,5.14-5.33,5.75c-1.17,0.23-2.38,0.29-3.57,0.29l-81.7,0.01c-1.63,0-2.25,0.62-2.23,2.25L0.11,78.24z"/>
	<path class="st0" d="M0.13,47.91c0,1.22,0.69,1.99,1.86,1.99l15.21,0c1.1,0,1.78-0.7,1.86-1.8c0.01-0.21,0.02-0.43,0.02-0.64
		c0.02-5.69,0.02-11.38,0.05-17.07c0.01-2.39-0.02-4.8,0.15-7.18c0.24-3.42,2.16-5.55,5.47-6.2c1.02-0.2,2.08-0.27,3.12-0.27
		l82.03-0.01c1.76,0,2.33-0.58,2.31-2.36l-0.14-12.13C112.07,0.61,111.45,0,109.82,0L28.75,0c-4.25,0-8.46,0.35-12.59,1.42
		c-3.73,0.96-7.2,2.46-10.1,5.07c-4.14,3.72-5.88,8.53-6.03,13.96c-0.1,3.53,0.08,7.06,0.1,10.59C0.15,36.66,0.13,42.28,0.13,47.91z
		"/>
</g>
</svg>
